<svg width="40" height="40" viewBox="0 0 40 40" fill="none" xmlns="http://www.w3.org/2000/svg">
<path d="M29.7017 32.1088C29.8674 32.3157 30.1701 32.3495 30.3719 32.1776C32.1211 30.6876 33.5306 28.8371 34.5024 26.751C35.5418 24.5198 36.0525 22.079 35.9948 19.6186C35.9371 17.1582 35.3125 14.7445 34.1696 12.5653C33.1011 10.528 31.6066 8.74687 29.7896 7.34187C29.5798 7.17967 29.279 7.22776 29.1231 7.44231C28.9673 7.65679 29.0153 7.9564 29.2248 8.11898C30.9225 9.43697 32.3194 11.1048 33.3193 13.0114C34.3936 15.0599 34.9807 17.3288 35.035 19.6415C35.0892 21.9543 34.6091 24.2486 33.6321 26.346C32.7226 28.2983 31.4054 30.031 29.7712 31.4285C29.5698 31.6006 29.5359 31.902 29.7017 32.1088Z" fill="white"/>
<path d="M27.8942 6.63446C28.0291 6.40618 27.9535 6.11106 27.7212 5.98321C25.8512 4.95377 23.7925 4.3082 21.6659 4.08635C19.3799 3.84792 17.0693 4.10465 14.891 4.83916C12.7128 5.57367 10.7183 6.76868 9.04306 8.34288C7.48452 9.8074 6.23648 11.5681 5.37098 13.52C5.26357 13.7624 5.3821 14.0428 5.62761 14.1429C5.87306 14.2429 6.15244 14.1248 6.26029 13.8827C7.07336 12.0583 8.24236 10.4124 9.70042 9.04229C11.2751 7.56253 13.15 6.43928 15.1975 5.7488C17.245 5.05839 19.4171 4.81705 21.5659 5.04121C23.5554 5.2487 25.4816 5.85074 27.2327 6.81034C27.4653 6.93782 27.7593 6.86275 27.8942 6.63446Z" fill="white"/>
<path d="M4.99651 16.0225C4.74032 15.9546 4.47681 16.1069 4.41651 16.365C4.16313 17.4489 4.0236 18.5563 4.0001 19.6691C3.99454 19.9342 4.21225 20.1472 4.47744 20.1447C4.74251 20.1423 4.95459 19.9255 4.96065 19.6606C4.98427 18.6338 5.11299 17.6121 5.34481 16.6113C5.40468 16.3531 5.25277 16.0904 4.99651 16.0225Z" fill="white"/>
<path d="M4.61403 22.0707C4.35134 22.1061 4.16625 22.3477 4.20937 22.6092C4.53573 24.5884 5.23171 26.4899 6.26242 28.2139C7.37525 30.0752 8.85499 31.6907 10.6118 32.9623C12.3686 34.2338 14.3658 35.1348 16.482 35.6106C18.442 36.0513 20.4662 36.1185 22.4488 35.8106C22.7107 35.7699 22.8825 35.5187 22.8341 35.2581C22.7857 34.9974 22.535 34.8262 22.2728 34.8664C20.4184 35.1508 18.5258 35.086 16.6929 34.6739C14.7037 34.2267 12.8264 33.3798 11.175 32.1845C9.52359 30.9893 8.13258 29.4707 7.08656 27.721C6.1227 26.1089 5.47028 24.3315 5.16147 22.4815C5.11786 22.22 4.87685 22.0354 4.61403 22.0707Z" fill="white"/>
<path d="M24.3759 34.8885C24.4506 35.1428 24.7178 35.2891 24.9699 35.2067C26.0667 34.8479 27.1216 34.3716 28.116 33.7861C28.3444 33.6517 28.4113 33.3547 28.2701 33.1305C28.1288 32.9062 27.8327 32.8396 27.604 32.9737C26.6847 33.5126 25.7108 33.9523 24.6987 34.2854C24.4469 34.3683 24.3011 34.6342 24.3759 34.8885Z" fill="white"/>
<path d="M31.3593 27.7848C27.0345 34.0183 18.473 35.5671 12.2368 31.2441C6.00051 26.9212 4.45103 18.3636 8.77591 12.1302C13.1008 5.89685 21.6622 4.34807 27.8985 8.67093C34.1347 12.9939 35.6841 21.5514 31.3593 27.7848ZM10.4447 13.287C6.75897 18.5992 8.07943 25.8921 13.394 29.5761C18.7086 33.2602 26.0049 31.9403 29.6906 26.6281C33.3763 21.3159 32.0558 14.023 26.7411 10.3389C21.4265 6.65491 14.1304 7.97477 10.4447 13.287Z" fill="white"/>
</svg>
